<?xml version="1.0" encoding="UTF-8"?>
<svg xmlns="http://www.w3.org/2000/svg" xmlns:xlink="http://www.w3.org/1999/xlink" viewBox="0 0 681.49 1520.36">
  <defs>
    <style>
      .cls-1 {
        fill: url(#linear-gradient-13);
      }

      .cls-2 {
        fill: url(#linear-gradient-12);
      }

      .cls-2, .cls-3 {
        mix-blend-mode: multiply;
        opacity: .6;
      }

      .cls-4 {
        fill: url(#linear-gradient-2);
      }

      .cls-5 {
        fill: url(#linear-gradient-10);
      }

      .cls-6 {
        fill: #ef4136;
      }

      .cls-7 {
        fill: url(#linear-gradient-14);
        mix-blend-mode: color-burn;
        opacity: .18;
      }

      .cls-8 {
        fill: url(#linear-gradient-4);
      }

      .cls-9 {
        fill: url(#radial-gradient-5);
      }

      .cls-10 {
        fill: url(#radial-gradient);
      }

      .cls-11 {
        fill: url(#linear-gradient-3);
      }

      .cls-12 {
        fill: url(#linear-gradient-5);
      }

      .cls-13 {
        isolation: isolate;
      }

      .cls-14 {
        fill: url(#linear-gradient-8);
      }

      .cls-15 {
        fill: url(#radial-gradient-3);
        mix-blend-mode: screen;
      }

      .cls-3 {
        fill: url(#linear-gradient-11);
      }

      .cls-16 {
        fill: url(#radial-gradient-2);
      }

      .cls-17 {
        fill: url(#radial-gradient-4);
      }

      .cls-18 {
        fill: url(#linear-gradient-7);
      }

      .cls-19 {
        fill: url(#linear-gradient-9);
      }

      .cls-20 {
        fill: url(#linear-gradient-6);
      }

      .cls-21 {
        fill: #d42236;
      }

      .cls-22 {
        fill: #989a98;
      }

      .cls-23 {
        fill: #3e413e;
      }

      .cls-24 {
        fill: url(#linear-gradient);
      }
    </style>
    <linearGradient id="linear-gradient" x1="338.88" y1="1296.06" x2="338.88" y2="1182.93" gradientUnits="userSpaceOnUse">
      <stop offset="0" stop-color="#941d00"/>
      <stop offset=".46" stop-color="#e65125"/>
      <stop offset=".59" stop-color="#e65325"/>
      <stop offset=".68" stop-color="#e85d28"/>
      <stop offset=".76" stop-color="#ec6c2c"/>
      <stop offset=".83" stop-color="#f18233"/>
      <stop offset=".9" stop-color="#f79f3b"/>
      <stop offset=".93" stop-color="#fbb040"/>
    </linearGradient>
    <linearGradient id="linear-gradient-2" x1="339.5" y1="1375" x2="339.5" y2="1333.57" xlink:href="#linear-gradient"/>
    <linearGradient id="linear-gradient-3" x1="339.5" y1="1375" x2="339.5" y2="1333.57" xlink:href="#linear-gradient"/>
    <linearGradient id="linear-gradient-4" x1="339.5" y1="1375" x2="339.5" y2="1333.57" xlink:href="#linear-gradient"/>
    <linearGradient id="linear-gradient-5" x1="339.5" y1="1375" x2="339.5" y2="1333.57" xlink:href="#linear-gradient"/>
    <linearGradient id="linear-gradient-6" x1="339.5" y1="1375" x2="339.5" y2="1333.57" xlink:href="#linear-gradient"/>
    <linearGradient id="linear-gradient-7" x1="327.69" y1="1520.36" x2="327.69" y2="1407.57" xlink:href="#linear-gradient"/>
    <linearGradient id="linear-gradient-8" x1="327.69" y1="1520.36" x2="327.69" y2="1407.57" xlink:href="#linear-gradient"/>
    <linearGradient id="linear-gradient-9" x1="327.69" y1="1520.36" x2="327.69" y2="1407.57" xlink:href="#linear-gradient"/>
    <linearGradient id="linear-gradient-10" x1="327.69" y1="1520.36" x2="327.69" y2="1407.57" xlink:href="#linear-gradient"/>
    <linearGradient id="linear-gradient-11" x1="165.31" y1="934.69" x2="606.09" y2="292.97" gradientUnits="userSpaceOnUse">
      <stop offset=".51" stop-color="#fff"/>
      <stop offset=".6" stop-color="#e2e2e2"/>
      <stop offset=".79" stop-color="#99999a"/>
      <stop offset="1" stop-color="#414042"/>
    </linearGradient>
    <linearGradient id="linear-gradient-12" x1="-2.23" y1="1210.68" x2="368.77" y2="556.8" gradientUnits="userSpaceOnUse">
      <stop offset=".53" stop-color="#fff"/>
      <stop offset=".61" stop-color="#e2e2e2"/>
      <stop offset=".79" stop-color="#99999a"/>
      <stop offset="1" stop-color="#414042"/>
    </linearGradient>
    <linearGradient id="linear-gradient-13" x1="469.76" y1="992.64" x2="477.87" y2="44.15" gradientUnits="userSpaceOnUse">
      <stop offset=".39" stop-color="#fbb040"/>
      <stop offset=".5" stop-color="#faab3f"/>
      <stop offset=".62" stop-color="#f99f3e"/>
      <stop offset=".74" stop-color="#f68a3c"/>
      <stop offset=".86" stop-color="#f36e3a"/>
      <stop offset=".98" stop-color="#ef4936"/>
      <stop offset="1" stop-color="#ef4136"/>
    </linearGradient>
    <linearGradient id="linear-gradient-14" x1="334.29" y1="1385.26" x2="345.61" y2="60.03" gradientUnits="userSpaceOnUse">
      <stop offset=".39" stop-color="#fbb040"/>
      <stop offset=".5" stop-color="#faab3f"/>
      <stop offset=".62" stop-color="#f99f3e"/>
      <stop offset=".74" stop-color="#f68a3c"/>
      <stop offset=".86" stop-color="#f36e3a"/>
      <stop offset=".98" stop-color="#ef4936"/>
      <stop offset="1" stop-color="#ef4136"/>
    </linearGradient>
    <radialGradient id="radial-gradient" cx="1585.25" cy="7134.52" fx="1585.25" fy="7134.52" r="339.72" gradientTransform="translate(2150.2 -618.37) rotate(90.73) scale(.83 .26) skewX(-.08)" gradientUnits="userSpaceOnUse">
      <stop offset="0" stop-color="#fff" stop-opacity=".94"/>
      <stop offset=".09" stop-color="#fff" stop-opacity=".96"/>
      <stop offset="1" stop-color="#aa1e2e" stop-opacity=".2"/>
    </radialGradient>
    <radialGradient id="radial-gradient-2" cx="1436.12" cy="7049.29" fx="1436.12" fy="7049.29" r="603.94" gradientTransform="translate(-1718.4 1797.52) rotate(-90.3) scale(.83 .27) skewX(.03)" gradientUnits="userSpaceOnUse">
      <stop offset=".46" stop-color="#aa1e2e"/>
      <stop offset="1" stop-color="#ef4136" stop-opacity="0"/>
    </radialGradient>
    <radialGradient id="radial-gradient-3" cx="3185.08" cy="9450.93" fx="3185.08" fy="9450.93" r=".41" gradientTransform="translate(8651.78 -2370.12) rotate(87.85) scale(.88) skewX(.23)" gradientUnits="userSpaceOnUse">
      <stop offset="0" stop-color="#aa1e2e"/>
      <stop offset=".54" stop-color="#aa1e2e" stop-opacity="0"/>
    </radialGradient>
    <radialGradient id="radial-gradient-4" cx="1781.79" cy="7005.97" fx="1781.79" fy="7005.97" r="548.82" gradientTransform="translate(-2093.55 1994.07) rotate(-89.32) scale(.83 .36) skewX(-.1)" gradientUnits="userSpaceOnUse">
      <stop offset=".57" stop-color="#aa1e2e"/>
      <stop offset="1" stop-color="#ef4136" stop-opacity="0"/>
    </radialGradient>
    <radialGradient id="radial-gradient-5" cx="3240.02" cy="9299.25" fx="3240.02" fy="9299.25" r="366.08" gradientTransform="translate(-2082.84 3466.03) rotate(-88.83) scale(.88 .27) skewX(-.04)" gradientUnits="userSpaceOnUse">
      <stop offset=".44" stop-color="#aa1e2e"/>
      <stop offset="1" stop-color="#ef4136" stop-opacity="0"/>
    </radialGradient>
  </defs>
  <g class="cls-13">
    <g id="Layer_2">
      <g id="Layer_1-2" data-name="Layer_1">
        <g>
          <g>
            <g>
              <path class="cls-23" d="M154.34,1293.59c2.96-3.73,4.44-8.55,4.44-14.47,0-.99-.06-1.75-.18-2.3l-5.68-68.73-26.29,85.5h-14.21c0-1.21-1.95-8.82-5.86-22.86-2.37-8.44-5.15-18-8.35-28.69s-6.75-22.61-10.66-35.76l-6.22,62.98c-.36,4.27-.53,6.69-.53,7.23,0,1.21.18,2.58.53,4.11.36,1.54.8,3.1,1.33,4.69.53,1.59,1.18,3.12,1.95,4.6.77,1.48,1.51,2.71,2.22,3.7h-21.49l-.36.16.36-.99c3.79-6.47,5.98-12.06,6.57-16.77l7.64-76.29c.36-4.16-.59-9.04-2.84-14.63h37.48l18.12,62.15,17.76-62.15h37.12c-2.96,4.39-4.44,8.94-4.44,13.65,0-.11.18,1.56.53,5.01s.83,8.69,1.42,15.7l3.73,39.46c.36,3.84.89,9.59,1.6,17.26.95,7.56,3.14,13.38,6.57,17.43h-42.27Z"/>
              <path class="cls-23" d="M241.9,1200.69v1.15c.12.33.18.71.18,1.15v73.66c0,7.35,1.89,13.1,5.68,17.26h-44.05c4.26-5.92,6.39-11.78,6.39-17.59v-73.33c0-7.78-1.78-13.76-5.33-17.92h43.34c-4.15,5.15-6.22,10.36-6.22,15.62Z"/>
              <path class="cls-23" d="M364.63,1275.5c-10.19,12.06-21.85,18.09-34.99,18.09h-13.32c-5.33,0-11.55.06-18.65.16-7.11.11-13.32.16-18.65.16h-13.32c-.36,0-.74-.03-1.15-.08-.42-.06-.92-.14-1.51-.25,3.43-8.22,5.15-13.59,5.15-16.11v-76.13c0-6.14-1.72-11.56-5.15-16.28h65.01c14.68,0,27,5.81,36.94,17.43,9.24,10.85,13.85,23.24,13.85,37.16,0,12.5-4.74,24.45-14.21,35.84ZM311.17,1192.63h-10.3l.18,93.56h2.31c.95,0,2.07-.05,3.38-.16,1.18-.11,2.25-.17,3.2-.17h2.31c10.18,0,17.94-5.43,23.27-16.28,4.14-8.55,6.22-18.14,6.22-28.77,0-32.12-10.18-48.18-30.55-48.18Z"/>
              <path class="cls-23" d="M484.35,1285.53c-9,7.02-19.54,10.52-31.62,10.52-4.74,0-11.84-1.43-21.31-4.27-9.24-2.85-16.22-4.28-20.96-4.28s-8.59,2.19-11.54,6.58c-2.25-.66-3.97-2.3-5.15-4.93-1.3-2.19-1.95-4.44-1.95-6.74,0-2.63.53-5.07,1.6-7.32,1.07-2.25,2.54-4.22,4.44-5.92,1.89-1.7,4.08-3.01,6.57-3.95,2.49-.93,5.15-1.4,7.99-1.4,4.38,0,9.71,1.64,15.99,4.93,1.3.77,2.84,1.67,4.62,2.71,1.78,1.04,3.67,2.28,5.68,3.7,3.43,2.19,6.07,3.95,7.9,5.26,1.83,1.32,2.99,2.08,3.46,2.3,5.09,2.85,9.29,4.28,12.61,4.28,2.13,0,4.14-.33,6.04-.99,1.89-.66,3.55-1.59,4.97-2.8,1.42-1.21,2.58-2.6,3.46-4.19.89-1.59,1.33-3.31,1.33-5.18,0-8.66-7.05-14.74-21.14-18.25-6.63-1.53-13.21-3.07-19.72-4.6-6.51-1.53-13.08-3.07-19.72-4.6-14.09-5.59-21.14-15.35-21.14-29.27,0-10.52,4.62-19.02,13.85-25.49,8.41-5.81,18.47-8.71,30.2-8.71,2.72,0,5.3.08,7.73.25,2.42.16,4.76.47,7.02.9,5.68.88,10.15,1.56,13.41,2.05,3.26.49,5.48.74,6.66.74h2.13c.71,0,1.3-.05,1.78-.16,1.18-.11,2.34-.22,3.46-.33,1.12-.11,2.16-.27,3.11-.49,4.26-.66,6.45-.99,6.57-.99.95,0,1.42.27,1.42.82,0,6.25-2.25,11.95-6.75,17.1-4.86,5.59-10.54,8.39-17.05,8.39-7.7,0-12.55-1.42-14.56-4.27v-2.14c0-9.32-5.98-13.98-17.94-13.98-4.74,0-8.82.88-12.26,2.63-4.26,2.19-6.39,5.26-6.39,9.21,0,7.23,6.87,12.44,20.6,15.62,23.33,5.26,36.12,8.44,38.37,9.54,13.74,5.92,20.6,15.95,20.6,30.09,0,11.07-4.8,20.28-14.39,27.62Z"/>
              <path class="cls-23" d="M610.63,1223.87c-.59-1.09-1.3-2.38-2.13-3.86-.83-1.48-1.84-3.26-3.02-5.34-7.7-13.48-16.7-20.5-27-21.05v83.36c0,1.97,1.66,7.51,4.97,16.61h-41.92c3.43-6.58,5.15-12.11,5.15-16.61v-83.36h-.36c-9.47-.22-19,8.11-28.6,24.99-.59,1.21-1.24,2.41-1.95,3.62-.71,1.21-1.36,2.41-1.95,3.62-.12.11-.24.17-.36.17-1.07,0-1.54-.05-1.42-.17.12-4.93.29-10.77.53-17.51.24-6.74.53-14.5.89-23.27h97.16l1.42,25.49c.24,3.84.41,6.8.53,8.88.12,2.08.18,3.4.18,3.95v.16c-.12-.11-.24-.16-.36-.16-.47,0-1.07.16-1.78.49Z"/>
            </g>
            <g>
              <path class="cls-24" d="M154.34,1293.59c2.96-3.73,4.44-8.55,4.44-14.47,0-.99-.06-1.75-.18-2.3l-5.68-68.73-26.29,85.5h-14.21c0-1.21-1.95-8.82-5.86-22.86-2.37-8.44-5.15-18-8.35-28.69s-6.75-22.61-10.66-35.76l-6.22,62.98c-.36,4.27-.53,6.69-.53,7.23,0,1.21.18,2.58.53,4.11.36,1.54.8,3.1,1.33,4.69.53,1.59,1.18,3.12,1.95,4.6.77,1.48,1.51,2.71,2.22,3.7h-21.49l-.36.16.36-.99c3.79-6.47,5.98-12.06,6.57-16.77l7.64-76.29c.36-4.16-.59-9.04-2.84-14.63h37.48l18.12,62.15,17.76-62.15h37.12c-2.96,4.39-4.44,8.94-4.44,13.65,0-.11.18,1.56.53,5.01s.83,8.69,1.42,15.7l3.73,39.46c.36,3.84.89,9.59,1.6,17.26.95,7.56,3.14,13.38,6.57,17.43h-42.27Z"/>
              <path class="cls-24" d="M241.9,1200.69v1.15c.12.33.18.71.18,1.15v73.66c0,7.35,1.89,13.1,5.68,17.26h-44.05c4.26-5.92,6.39-11.78,6.39-17.59v-73.33c0-7.78-1.78-13.76-5.33-17.92h43.34c-4.15,5.15-6.22,10.36-6.22,15.62Z"/>
              <path class="cls-24" d="M364.63,1275.5c-10.19,12.06-21.85,18.09-34.99,18.09h-13.32c-5.33,0-11.55.06-18.65.16-7.11.11-13.32.16-18.65.16h-13.32c-.36,0-.74-.03-1.15-.08-.42-.06-.92-.14-1.51-.25,3.43-8.22,5.15-13.59,5.15-16.11v-76.13c0-6.14-1.72-11.56-5.15-16.28h65.01c14.68,0,27,5.81,36.94,17.43,9.24,10.85,13.85,23.24,13.85,37.16,0,12.5-4.74,24.45-14.21,35.84ZM311.17,1192.63h-10.3l.18,93.56h2.31c.95,0,2.07-.05,3.38-.16,1.18-.11,2.25-.17,3.2-.17h2.31c10.18,0,17.94-5.43,23.27-16.28,4.14-8.55,6.22-18.14,6.22-28.77,0-32.12-10.18-48.18-30.55-48.18Z"/>
              <path class="cls-24" d="M484.35,1285.53c-9,7.02-19.54,10.52-31.62,10.52-4.74,0-11.84-1.43-21.31-4.27-9.24-2.85-16.22-4.28-20.96-4.28s-8.59,2.19-11.54,6.58c-2.25-.66-3.97-2.3-5.15-4.93-1.3-2.19-1.95-4.44-1.95-6.74,0-2.63.53-5.07,1.6-7.32,1.07-2.25,2.54-4.22,4.44-5.92,1.89-1.7,4.08-3.01,6.57-3.95,2.49-.93,5.15-1.4,7.99-1.4,4.38,0,9.71,1.64,15.99,4.93,1.3.77,2.84,1.67,4.62,2.71,1.78,1.04,3.67,2.28,5.68,3.7,3.43,2.19,6.07,3.95,7.9,5.26,1.83,1.32,2.99,2.08,3.46,2.3,5.09,2.85,9.29,4.28,12.61,4.28,2.13,0,4.14-.33,6.04-.99,1.89-.66,3.55-1.59,4.97-2.8,1.42-1.21,2.58-2.6,3.46-4.19.89-1.59,1.33-3.31,1.33-5.18,0-8.66-7.05-14.74-21.14-18.25-6.63-1.53-13.21-3.07-19.72-4.6-6.51-1.53-13.08-3.07-19.72-4.6-14.09-5.59-21.14-15.35-21.14-29.27,0-10.52,4.62-19.02,13.85-25.49,8.41-5.81,18.47-8.71,30.2-8.71,2.72,0,5.3.08,7.73.25,2.42.16,4.76.47,7.02.9,5.68.88,10.15,1.56,13.41,2.05,3.26.49,5.48.74,6.66.74h2.13c.71,0,1.3-.05,1.78-.16,1.18-.11,2.34-.22,3.46-.33,1.12-.11,2.16-.27,3.11-.49,4.26-.66,6.45-.99,6.57-.99.95,0,1.42.27,1.42.82,0,6.25-2.25,11.95-6.75,17.1-4.86,5.59-10.54,8.39-17.05,8.39-7.7,0-12.55-1.42-14.56-4.27v-2.14c0-9.32-5.98-13.98-17.94-13.98-4.74,0-8.82.88-12.26,2.63-4.26,2.19-6.39,5.26-6.39,9.21,0,7.23,6.87,12.44,20.6,15.62,23.33,5.26,36.12,8.44,38.37,9.54,13.74,5.92,20.6,15.95,20.6,30.09,0,11.07-4.8,20.28-14.39,27.62Z"/>
              <path class="cls-24" d="M610.63,1223.87c-.59-1.09-1.3-2.38-2.13-3.86-.83-1.48-1.84-3.26-3.02-5.34-7.7-13.48-16.7-20.5-27-21.05v83.36c0,1.97,1.66,7.51,4.97,16.61h-41.92c3.43-6.58,5.15-12.11,5.15-16.61v-83.36h-.36c-9.47-.22-19,8.11-28.6,24.99-.59,1.21-1.24,2.41-1.95,3.62-.71,1.21-1.36,2.41-1.95,3.62-.12.11-.24.17-.36.17-1.07,0-1.54-.05-1.42-.17.12-4.93.29-10.77.53-17.51.24-6.74.53-14.5.89-23.27h97.16l1.42,25.49c.24,3.84.41,6.8.53,8.88.12,2.08.18,3.4.18,3.95v.16c-.12-.11-.24-.16-.36-.16-.47,0-1.07.16-1.78.49Z"/>
            </g>
          </g>
          <g>
            <g>
              <path class="cls-22" d="M256.31,1368.86c-3.95,4.09-8.9,6.14-14.85,6.14-6.46,0-11.56-2.07-15.3-6.2-3.49-3.82-5.23-8.79-5.23-14.93,0-5.82,1.87-10.64,5.61-14.46,3.74-3.89,8.71-5.84,14.92-5.84s11.39,2.07,15.17,6.2c3.57,3.89,5.35,8.83,5.35,14.81,0,5.55-1.89,10.31-5.67,14.28ZM248.98,1342.43c-1.23-4.09-3.89-6.14-7.97-6.14-3.27,0-5.5,1.53-6.69,4.6-.72,1.93-1.08,4.72-1.08,8.38,0,2.79.02,5.15.06,7.08.04,1.93.11,3.46.19,4.6.64,7.71,3.34,11.57,8.1,11.57,3.1,0,5.25-1.02,6.44-3.07.81-1.3,1.34-3.62,1.59-6.96.13-1.81.19-4.52.19-8.14v-1.18c0-5.35-.28-8.93-.83-10.74Z"/>
              <path class="cls-22" d="M295.77,1339.83c-2.8-.98-6.48-1.48-11.03-1.48h-1.59c-.55,0-1.13.02-1.72.06-.04,2.75-.06,4.84-.06,6.25v5.25c0,.87.02,1.57.06,2.12,2.34-2.12,4.97-3.19,7.9-3.19,1.57,0,3.1.14,4.59.41,1.23.2,2.23.35,3,.47.76.12,1.32.18,1.66.18,2.34,0,3.95-.45,4.85-1.36.17.12.25.29.25.53,0,1.14-.76,2.42-2.29,3.84-1.66,1.53-4.04,2.3-7.14,2.3-.51,0-1.13-.03-1.85-.09-.72-.06-1.55-.17-2.49-.32-.94-.16-1.73-.27-2.39-.35-.66-.08-1.22-.12-1.69-.12-1.96,0-3.21.53-3.76,1.59-.42.75-.64,2.11-.64,4.07v8.2c0,.16-.02.33-.06.53v.88c0,1.06.15,1.85.45,2.36.21.32.42.64.64.97.21.33.42.66.64.97l-15.43-.06c.51-.55,1.02-1.46,1.53-2.71.55-1.3.83-2.3.83-3.01l.06-26.44c0-2.48-.7-4.7-2.1-6.67h35.25c.21,2.48.4,4.64.57,6.49.17,1.85.34,3.44.51,4.78-2.17-3.07-5.02-5.23-8.54-6.49Z"/>
              <path class="cls-22" d="M369.78,1348.86c-.21-.39-.47-.86-.76-1.39-.3-.53-.66-1.17-1.08-1.92-2.76-4.84-5.99-7.36-9.69-7.55v29.92c0,.71.59,2.69,1.79,5.96h-15.04c1.23-2.36,1.85-4.35,1.85-5.96v-29.92h-.13c-3.4-.08-6.82,2.91-10.26,8.97-.21.43-.45.87-.7,1.3-.25.43-.49.87-.7,1.3-.04.04-.09.06-.13.06-.38,0-.55-.02-.51-.06.04-1.77.11-3.87.19-6.28.08-2.42.19-5.2.32-8.35h34.87l.51,9.15c.09,1.38.15,2.44.19,3.19s.06,1.22.06,1.42v.06s-.09-.06-.13-.06c-.17,0-.38.06-.64.18Z"/>
              <path class="cls-22" d="M412.61,1337.47c-.34,1.06-.51,2.03-.51,2.89v28.09c0,.83.64,2.66,1.91,5.49-.13.04-.43.06-.89.06h-.45c-.25,0-.62-.02-1.08-.06-.21-.04-.66-.06-1.34-.06h-6.5c-1.49,0-3.25.02-5.29.06,1.27-2.04,1.91-3.82,1.91-5.31l.13-19.41c-.26.24-.6.49-1.02.77-1.11.55-2.4.83-3.89.83-.34,0-.74-.03-1.21-.09-.47-.06-1.04-.13-1.72-.21-.68-.08-1.25-.15-1.72-.21-.47-.06-.87-.09-1.21-.09-1.36,0-2.19.37-2.49,1.12v17.23c0,1.81.51,3.6,1.53,5.37h-14.47c1.06-.98,1.59-2.71,1.59-5.19v-28.09c0-1.97-.45-3.87-1.34-5.72h14.98c-1.45,1.22-2.17,2.97-2.17,5.25v7.08c.3-.39,1.19-.81,2.68-1.24,1.28-.35,2.25-.53,2.93-.53.3,0,.65.03,1.05.09.4.06.9.13,1.5.21.59.08,1.11.15,1.53.21.42.06.79.09,1.08.09,1.06,0,1.74-.25,2.04-.77.21-.47.32-1.18.32-2.12v-3.01c0-.75-.02-1.22-.06-1.42-.21-1.65-.83-2.93-1.85-3.83h15.49c-.6.51-1.08,1.36-1.47,2.54Z"/>
              <path class="cls-22" d="M456.02,1373.88l-27.47.12c-2.42,0-4.37,0-5.83-.03-1.47-.02-2.5-.05-3.09-.09,1.44-1.14,2.25-2.77,2.42-4.9.04-.47.07-.82.1-1.03.02-.22.03-.29.03-.21v-27.85c0-2.32-.79-3.97-2.36-4.96h35.25c.17,1.26.33,2.48.48,3.66.15,1.18.29,2.28.41,3.3.17,1.26.29,2.23.35,2.92.06.69.1,1.11.1,1.27v.06c-5.82-5.51-11.09-8.34-15.81-8.5h-7.2v15.58c.72-1.18,1.73-2.19,3.03-3.04s2.6-1.27,3.92-1.27c1.06,0,2.68.18,4.84.53,2.17.35,3.76.53,4.78.53,1.15,0,2.53-.57,4.14-1.71,0,2.05-.79,3.72-2.36,5.02-1.74,1.42-3.66,2.12-5.74,2.12-2.34-.39-4.72-.79-7.14-1.18-.13-.04-.36-.06-.7-.06-.76,0-1.56.2-2.39.59-.83.39-1.62.79-2.39,1.18l-.06,14.75c1.1.04,2.14.06,3.12.06h4.78c.47,0,.81-.02,1.02-.06,2.93-.28,5.93-1.75,8.99-4.43.76-.67,1.72-1.61,2.87-2.83,1.15-1.22,2.46-2.71,3.95-4.48l-2.04,14.93Z"/>
            </g>
            <g>
              <path class="cls-4" d="M256.31,1368.86c-3.95,4.09-8.9,6.14-14.85,6.14-6.46,0-11.56-2.07-15.3-6.2-3.49-3.82-5.23-8.79-5.23-14.93,0-5.82,1.87-10.64,5.61-14.46,3.74-3.89,8.71-5.84,14.92-5.84s11.39,2.07,15.17,6.2c3.57,3.89,5.35,8.83,5.35,14.81,0,5.55-1.89,10.31-5.67,14.28ZM248.98,1342.43c-1.23-4.09-3.89-6.14-7.97-6.14-3.27,0-5.5,1.53-6.69,4.6-.72,1.93-1.08,4.72-1.08,8.38,0,2.79.02,5.15.06,7.08.04,1.93.11,3.46.19,4.6.64,7.71,3.34,11.57,8.1,11.57,3.1,0,5.25-1.02,6.44-3.07.81-1.3,1.34-3.62,1.59-6.96.13-1.81.19-4.52.19-8.14v-1.18c0-5.35-.28-8.93-.83-10.74Z"/>
              <path class="cls-11" d="M295.77,1339.83c-2.8-.98-6.48-1.48-11.03-1.48h-1.59c-.55,0-1.13.02-1.72.06-.04,2.75-.06,4.84-.06,6.25v5.25c0,.87.02,1.57.06,2.12,2.34-2.12,4.97-3.19,7.9-3.19,1.57,0,3.1.14,4.59.41,1.23.2,2.23.35,3,.47.76.12,1.32.18,1.66.18,2.34,0,3.95-.45,4.85-1.36.17.12.25.29.25.53,0,1.14-.76,2.42-2.29,3.84-1.66,1.53-4.04,2.3-7.14,2.3-.51,0-1.13-.03-1.85-.09-.72-.06-1.55-.17-2.49-.32-.94-.16-1.73-.27-2.39-.35-.66-.08-1.22-.12-1.69-.12-1.96,0-3.21.53-3.76,1.59-.42.75-.64,2.11-.64,4.07v8.2c0,.16-.02.33-.06.53v.88c0,1.06.15,1.85.45,2.36.21.32.42.64.64.97.21.33.42.66.64.97l-15.43-.06c.51-.55,1.02-1.46,1.53-2.71.55-1.3.83-2.3.83-3.01l.06-26.44c0-2.48-.7-4.7-2.1-6.67h35.25c.21,2.48.4,4.64.57,6.49.17,1.85.34,3.44.51,4.78-2.17-3.07-5.02-5.23-8.54-6.49Z"/>
              <path class="cls-8" d="M369.78,1348.86c-.21-.39-.47-.86-.76-1.39-.3-.53-.66-1.17-1.08-1.92-2.76-4.84-5.99-7.36-9.69-7.55v29.92c0,.71.59,2.69,1.79,5.96h-15.04c1.23-2.36,1.85-4.35,1.85-5.96v-29.92h-.13c-3.4-.08-6.82,2.91-10.26,8.97-.21.43-.45.87-.7,1.3-.25.43-.49.87-.7,1.3-.04.04-.09.06-.13.06-.38,0-.55-.02-.51-.06.04-1.77.11-3.87.19-6.28.08-2.42.19-5.2.32-8.35h34.87l.51,9.15c.09,1.38.15,2.44.19,3.19s.06,1.22.06,1.42v.06s-.09-.06-.13-.06c-.17,0-.38.06-.64.18Z"/>
              <path class="cls-12" d="M412.61,1337.47c-.34,1.06-.51,2.03-.51,2.89v28.09c0,.83.64,2.66,1.91,5.49-.13.04-.43.06-.89.06h-.45c-.25,0-.62-.02-1.08-.06-.21-.04-.66-.06-1.34-.06h-6.5c-1.49,0-3.25.02-5.29.06,1.27-2.04,1.91-3.82,1.91-5.31l.13-19.41c-.26.24-.6.49-1.02.77-1.11.55-2.4.83-3.89.83-.34,0-.74-.03-1.21-.09-.47-.06-1.04-.13-1.72-.21-.68-.08-1.25-.15-1.72-.21-.47-.06-.87-.09-1.21-.09-1.36,0-2.19.37-2.49,1.12v17.23c0,1.81.51,3.6,1.53,5.37h-14.47c1.06-.98,1.59-2.71,1.59-5.19v-28.09c0-1.97-.45-3.87-1.34-5.72h14.98c-1.45,1.22-2.17,2.97-2.17,5.25v7.08c.3-.39,1.19-.81,2.68-1.24,1.28-.35,2.25-.53,2.93-.53.3,0,.65.03,1.05.09.4.06.9.13,1.5.21.59.08,1.11.15,1.53.21.42.06.79.09,1.08.09,1.06,0,1.74-.25,2.04-.77.21-.47.32-1.18.32-2.12v-3.01c0-.75-.02-1.22-.06-1.42-.21-1.65-.83-2.93-1.85-3.83h15.49c-.6.51-1.08,1.36-1.47,2.54Z"/>
              <path class="cls-20" d="M456.02,1373.88l-27.47.12c-2.42,0-4.37,0-5.83-.03-1.47-.02-2.5-.05-3.09-.09,1.44-1.14,2.25-2.77,2.42-4.9.04-.47.07-.82.1-1.03.02-.22.03-.29.03-.21v-27.85c0-2.32-.79-3.97-2.36-4.96h35.25c.17,1.26.33,2.48.48,3.66.15,1.18.29,2.28.41,3.3.17,1.26.29,2.23.35,2.92.06.69.1,1.11.1,1.27v.06c-5.82-5.51-11.09-8.34-15.81-8.5h-7.2v15.58c.72-1.18,1.73-2.19,3.03-3.04s2.6-1.27,3.92-1.27c1.06,0,2.68.18,4.84.53,2.17.35,3.76.53,4.78.53,1.15,0,2.53-.57,4.14-1.71,0,2.05-.79,3.72-2.36,5.02-1.74,1.42-3.66,2.12-5.74,2.12-2.34-.39-4.72-.79-7.14-1.18-.13-.04-.36-.06-.7-.06-.76,0-1.56.2-2.39.59-.83.39-1.62.79-2.39,1.18l-.06,14.75c1.1.04,2.14.06,3.12.06h4.78c.47,0,.81-.02,1.02-.06,2.93-.28,5.93-1.75,8.99-4.43.76-.67,1.72-1.61,2.87-2.83,1.15-1.22,2.46-2.71,3.95-4.48l-2.04,14.93Z"/>
            </g>
          </g>
          <g>
            <g>
              <path class="cls-23" d="M202.47,1421.21c-7.81-2.74-18.06-4.11-30.73-4.11h-4.44c-1.54,0-3.14.06-4.8.16-.12,7.67-.18,13.48-.18,17.43v14.63c0,2.41.06,4.38.18,5.92,6.51-5.92,13.85-8.88,22.02-8.88,4.38,0,8.64.38,12.79,1.15,3.43.55,6.22.99,8.35,1.32,2.13.33,3.67.49,4.62.49,6.51,0,11.01-1.26,13.5-3.78.47.33.71.82.71,1.48,0,3.18-2.13,6.74-6.39,10.69-4.62,4.27-11.25,6.41-19.89,6.41-1.42,0-3.14-.08-5.15-.25-2.01-.16-4.32-.46-6.93-.9-2.61-.44-4.83-.77-6.66-.99-1.84-.22-3.4-.33-4.71-.33-5.45,0-8.94,1.48-10.48,4.44-1.19,2.08-1.78,5.87-1.78,11.34v22.86c0,.44-.06.93-.18,1.48v2.47c0,2.96.41,5.15,1.24,6.58.59.88,1.18,1.78,1.78,2.71.59.93,1.18,1.84,1.78,2.71l-42.98-.16c1.42-1.53,2.84-4.05,4.26-7.56,1.54-3.62,2.31-6.41,2.31-8.39l.18-73.66c0-6.91-1.95-13.1-5.86-18.58h98.22c.59,6.91,1.12,12.94,1.6,18.09.47,5.15.95,9.59,1.42,13.32-6.04-8.55-13.97-14.58-23.8-18.09Z"/>
              <path class="cls-23" d="M272.98,1423.19v1.15c.12.33.18.71.18,1.15v73.66c0,7.35,1.89,13.1,5.68,17.26h-44.05c4.26-5.92,6.39-11.78,6.39-17.59v-73.33c0-7.78-1.78-13.76-5.33-17.92h43.34c-4.15,5.15-6.22,10.36-6.22,15.62Z"/>
              <path class="cls-23" d="M400.69,1517.57c-4.74,1.86-9.36,2.79-13.85,2.79-9.47,0-16.28-3.07-20.43-9.21-2.25-3.4-4.32-10.08-6.22-20.06-1.9-9.64-4.41-16.44-7.55-20.39-3.14-3.95-7.02-5.92-11.63-5.92-2.13,0-4.5.88-7.1,2.63v34.2c0,5.59,1.48,10.47,4.44,14.63h-42.45c.24-.66.53-1.34.89-2.06.36-.71.71-1.45,1.07-2.22,1.89-4.6,2.84-8.66,2.84-12.17v-78.1c0-5.7-1.72-10.41-5.15-14.14h85.61c6.63,0,12.55,2.03,17.76,6.08,5.68,4.5,8.53,9.59,8.53,15.29,0,6.91-3.08,12.39-9.24,16.44-4.5,3.07-11.31,5.59-20.43,7.56-3.44.55-6.9,1.15-10.39,1.81-3.49.66-6.96,1.26-10.39,1.81v.33c1.3.22,2.87.49,4.71.82,1.83.33,3.94.71,6.3,1.15,8.29,1.64,15.51,6.8,21.67,15.46,5.09,7.02,8.76,15.07,11.01,24.17.24,1.1.65,2.17,1.24,3.21.59,1.04,1.3,2.11,2.13,3.21,1.89,2.41,3.85,3.62,5.86,3.62l.89.66c-1.42,3.51-4.8,6.3-10.12,8.39ZM365.17,1418.42c-3.08-1.86-6.81-2.8-11.19-2.8h-20.43l-.18,37c0,.88.03,1.64.09,2.3.06.66.15,1.26.27,1.81.47-.22,1.07-.46,1.78-.74.71-.27,1.54-.63,2.49-1.07.47-.33,1.09-.71,1.87-1.15.77-.44,1.63-.93,2.58-1.48,4.74-2.52,8.55-4.63,11.46-6.33,2.9-1.7,4.88-2.93,5.95-3.7,7.1-5.04,10.66-10.03,10.66-14.96,0-3.73-1.78-6.69-5.33-8.88Z"/>
              <path class="cls-23" d="M525.55,1516.09l-76.55.33c-6.75,0-12.17-.03-16.25-.08-4.08-.06-6.96-.14-8.61-.25,4.02-3.18,6.27-7.73,6.75-13.65.12-1.32.21-2.27.27-2.88.06-.6.09-.79.09-.58v-77.61c0-6.47-2.19-11.07-6.57-13.81h98.22c.47,3.51.92,6.91,1.33,10.19.41,3.29.8,6.36,1.15,9.21.47,3.51.8,6.22.98,8.14.18,1.92.27,3.1.27,3.54v.17c-16.22-15.35-30.91-23.24-44.05-23.68h-20.07v43.41c2.01-3.29,4.82-6.11,8.44-8.47,3.61-2.36,7.25-3.54,10.92-3.54,2.96,0,7.46.49,13.5,1.48,6.04.99,10.48,1.48,13.32,1.48,3.2,0,7.04-1.59,11.54-4.77,0,5.7-2.19,10.36-6.57,13.98-4.86,3.95-10.19,5.92-15.99,5.92-6.51-1.09-13.14-2.19-19.89-3.29-.36-.11-1.01-.17-1.95-.17-2.13,0-4.35.55-6.66,1.64-2.31,1.1-4.53,2.19-6.66,3.29l-.18,41.11c3.08.11,5.98.16,8.7.16h13.32c1.3,0,2.25-.05,2.84-.16,8.17-.77,16.52-4.88,25.04-12.33,2.13-1.86,4.8-4.49,7.99-7.89,3.2-3.4,6.87-7.56,11.01-12.5l-5.68,41.6Z"/>
            </g>
            <g>
              <path class="cls-18" d="M202.47,1421.21c-7.81-2.74-18.06-4.11-30.73-4.11h-4.44c-1.54,0-3.14.06-4.8.16-.12,7.67-.18,13.48-.18,17.43v14.63c0,2.41.06,4.38.18,5.92,6.51-5.92,13.85-8.88,22.02-8.88,4.38,0,8.64.38,12.79,1.15,3.43.55,6.22.99,8.35,1.32,2.13.33,3.67.49,4.62.49,6.51,0,11.01-1.26,13.5-3.78.47.33.71.82.71,1.48,0,3.18-2.13,6.74-6.39,10.69-4.62,4.27-11.25,6.41-19.89,6.41-1.42,0-3.14-.08-5.15-.25-2.01-.16-4.32-.46-6.93-.9-2.61-.44-4.83-.77-6.66-.99-1.84-.22-3.4-.33-4.71-.33-5.45,0-8.94,1.48-10.48,4.44-1.19,2.08-1.78,5.87-1.78,11.34v22.86c0,.44-.06.93-.18,1.48v2.47c0,2.96.41,5.15,1.24,6.58.59.88,1.18,1.78,1.78,2.71.59.93,1.18,1.84,1.78,2.71l-42.98-.16c1.42-1.53,2.84-4.05,4.26-7.56,1.54-3.62,2.31-6.41,2.31-8.39l.18-73.66c0-6.91-1.95-13.1-5.86-18.58h98.22c.59,6.91,1.12,12.94,1.6,18.09.47,5.15.95,9.59,1.42,13.32-6.04-8.55-13.97-14.58-23.8-18.09Z"/>
              <path class="cls-14" d="M272.98,1423.19v1.15c.12.33.18.71.18,1.15v73.66c0,7.35,1.89,13.1,5.68,17.26h-44.05c4.26-5.92,6.39-11.78,6.39-17.59v-73.33c0-7.78-1.78-13.76-5.33-17.92h43.34c-4.15,5.15-6.22,10.36-6.22,15.62Z"/>
              <path class="cls-19" d="M400.69,1517.57c-4.74,1.86-9.36,2.79-13.85,2.79-9.47,0-16.28-3.07-20.43-9.21-2.25-3.4-4.32-10.08-6.22-20.06-1.9-9.64-4.41-16.44-7.55-20.39-3.14-3.95-7.02-5.92-11.63-5.92-2.13,0-4.5.88-7.1,2.63v34.2c0,5.59,1.48,10.47,4.44,14.63h-42.45c.24-.66.53-1.34.89-2.06.36-.71.71-1.45,1.07-2.22,1.89-4.6,2.84-8.66,2.84-12.17v-78.1c0-5.7-1.72-10.41-5.15-14.14h85.61c6.63,0,12.55,2.03,17.76,6.08,5.68,4.5,8.53,9.59,8.53,15.29,0,6.91-3.08,12.39-9.24,16.44-4.5,3.07-11.31,5.59-20.43,7.56-3.44.55-6.9,1.15-10.39,1.81-3.49.66-6.96,1.26-10.39,1.81v.33c1.3.22,2.87.49,4.71.82,1.83.33,3.94.71,6.3,1.15,8.29,1.64,15.51,6.8,21.67,15.46,5.09,7.02,8.76,15.07,11.01,24.17.24,1.1.65,2.17,1.24,3.21.59,1.04,1.3,2.11,2.13,3.21,1.89,2.41,3.85,3.62,5.86,3.62l.89.66c-1.42,3.51-4.8,6.3-10.12,8.39ZM365.17,1418.42c-3.08-1.86-6.81-2.8-11.19-2.8h-20.43l-.18,37c0,.88.03,1.64.09,2.3.06.66.15,1.26.27,1.81.47-.22,1.07-.46,1.78-.74.71-.27,1.54-.63,2.49-1.07.47-.33,1.09-.71,1.87-1.15.77-.44,1.63-.93,2.58-1.48,4.74-2.52,8.55-4.63,11.46-6.33,2.9-1.7,4.88-2.93,5.95-3.7,7.1-5.04,10.66-10.03,10.66-14.96,0-3.73-1.78-6.69-5.33-8.88Z"/>
              <path class="cls-5" d="M525.55,1516.09l-76.55.33c-6.75,0-12.17-.03-16.25-.08-4.08-.06-6.96-.14-8.61-.25,4.02-3.18,6.27-7.73,6.75-13.65.12-1.32.21-2.27.27-2.88.06-.6.09-.79.09-.58v-77.61c0-6.47-2.19-11.07-6.57-13.81h98.22c.47,3.51.92,6.91,1.33,10.19.41,3.29.8,6.36,1.15,9.21.47,3.51.8,6.22.98,8.14.18,1.92.27,3.1.27,3.54v.17c-16.22-15.35-30.91-23.24-44.05-23.68h-20.07v43.41c2.01-3.29,4.82-6.11,8.44-8.47,3.61-2.36,7.25-3.54,10.92-3.54,2.96,0,7.46.49,13.5,1.48,6.04.99,10.48,1.48,13.32,1.48,3.2,0,7.04-1.59,11.54-4.77,0,5.7-2.19,10.36-6.57,13.98-4.86,3.95-10.19,5.92-15.99,5.92-6.51-1.09-13.14-2.19-19.89-3.29-.36-.11-1.01-.17-1.95-.17-2.13,0-4.35.55-6.66,1.64-2.31,1.1-4.53,2.19-6.66,3.29l-.18,41.11c3.08.11,5.98.16,8.7.16h13.32c1.3,0,2.25-.05,2.84-.16,8.17-.77,16.52-4.88,25.04-12.33,2.13-1.86,4.8-4.49,7.99-7.89,3.2-3.4,6.87-7.56,11.01-12.5l-5.68,41.6Z"/>
            </g>
          </g>
          <g>
            <path class="cls-6" d="M341.19,455.15c-90.89-68.04-99.15-164.37-91.56-229.78,4.93-42.55,16.55-72.04,16.55-72.04-51.77,59.24-88.59,121.4-113.91,184.28-45.75,113.63-53.62,229.56-43.06,334.95,29.3,44.68,80.23,80.06,166.65,87.96,223.21,20.4,250.69,242.83,151.77,281.56,131.27-28.38,231.73-124.98,251.21-297.54-51.38-130.9-239.8-216.15-337.65-289.4Z"/>
            <path class="cls-3" d="M341.19,455.15c-90.89-68.04-99.15-164.37-91.56-229.78,4.93-42.55,16.55-72.04,16.55-72.04-51.77,59.24-88.59,121.4-113.91,184.28-45.75,113.63-53.62,229.56-43.06,334.95,29.3,44.68,80.23,80.06,166.65,87.96,223.21,20.4,250.69,242.83,151.77,281.56,131.27-28.38,231.73-124.98,251.21-297.54-51.38-130.9-239.8-216.15-337.65-289.4Z"/>
            <path class="cls-21" d="M275.85,760.53C2.53,735.54,83.81,435.77,83.81,435.69,35.63,514.29.03,599.92.03,681.43c0,252.41,152.74,369.66,341.15,369.66,29.75,0,58.6-2.94,86.11-8.84,99.31-38.36,72.02-261.28-151.44-281.71Z"/>
            <path class="cls-2" d="M275.85,760.53C2.53,735.54,83.81,435.77,83.81,435.69,35.63,514.29.03,599.92.03,681.43c0,252.41,152.74,369.66,341.15,369.66,29.75,0,58.6-2.94,86.11-8.84,99.31-38.36,72.02-261.28-151.44-281.71Z"/>
            <path class="cls-1" d="M266,359.85c1.8,4.41,5.49,13.03,11.17,23.25,23.02,41.37,53.84,64.43,64.02,72.05,97.85,73.25,286.27,158.5,337.65,289.4-.39,3.45-.87,6.82-1.32,10.21t0,0h0c3.08-23.99,5.77-58.92,2.44-100.75-4.09-51.41-15.34-88.96-28.05-130.53-17.7-57.87-36.74-99.24-51.93-132.23-16.98-36.89-32.17-65.11-41.33-82.08-11.2-20.73-26.35-48.65-48.96-84.26-9.11-14.35-28.71-44.54-56.46-81.46-26.94-35.83-49.12-61.43-55.06-68.24C379.41,53.71,355.51,27.93,326.31,0c7.09,22.86,12.35,42.07,16.12,56.65,3.77,14.62,6.3,25.6,7.54,31.11,2.22,9.85,4.14,18.35,6.18,29.67,1.34,7.45,3.44,19.25,5.02,34.58,1.36,13.16,2.65,25.67,2.07,42.45-.66,19.14-3.4,33.28-4.03,36.44-4.18,21.03-10.49,36.03-12.09,39.75-3.04,7.07-8.46,18.51-17.24,31.46-13.14,19.38-26.36,31.31-29.36,33.97-12.87,11.42-25.24,18.94-34.52,23.76Z"/>
          </g>
          <path class="cls-7" d="M666.08,574.49c-8.52-36.5-16.96-62.48-19.14-68.96-6.7-19.95-13.37-36.9-18.96-50.98h0c-12.1-29.29-26.88-62.46-44.81-98.38-15.67-31.4-28.7-54.76-36.71-69.09-4.91-8.77-9.37-16.77-15.82-27.71-3.32-5.62-18.4-31.09-41.48-65.23-5.91-8.74-15.06-22.24-27.87-39.75-3.55-4.85-19.91-27.14-43.35-55.79-10.62-12.98-16.91-20.67-26.49-31.33-8.41-9.36-17.01-18.4-31.27-33.4-5.15-5.41-9.45-9.91-12.46-13.04-4.52-4.32-7.83-7.61-10.07-9.88-1.82-1.84-5.01-5.1-7.11-6.96-1.2-1.06-1.87-1.51-2.96-2.73-.57-.65-1.1-1.33-1.26-1.24-.18.1.27,1.18.38,1.43,1.26,3.04,1.87,6.3,2.93,9.41.91,2.65.6,2.12,3.17,11.09,2,6.97,2.08,6.92,3.53,11.99,1.05,3.67,2.03,7.43,3.97,14.78,2.15,8.21,3.23,12.31,4.09,15.84,1.43,5.88,1.35,5.97,3.76,16.29,1.89,8.1,1.92,7.94,3.42,14.45,1.91,8.28,2.87,12.42,3.9,17.89.11.59.04.2,2.39,14.29,1.65,9.89,1.97,11.73,2.33,15.16.24,2.23.35,3.77.88,8.88.4,3.83.67,6.21.82,7.52.89,8.07,1.17,15.31,1.26,17.7.17,4.46.3,11.34-.06,19.69-.68,15.68-2.72,27.47-3.21,30.25-1.91,10.73-4.27,19.35-5.98,24.97-1.6,5.26-4.26,13.91-9.13,24.53-2.15,4.69-7.42,15.64-16.45,28.46-15.95,22.66-32.96,36.01-37.67,39.59-9.69,7.35-18.43,12.39-24.64,15.63-2.95-7.11-6.42-16.45-9.52-27.66-1.19-4.29-5.22-19.4-7.5-40.31-3.3-30.26-.8-53.66.66-66.5.93-8.22,2.58-20.02,5.68-34.02,3.27-14.77,7.17-27.54,10.86-38.02-11.3,12.84-26.38,31.01-42.62,54.01-22.68,32.12-49.07,75.7-71.29,130.27-18.53,45.51-26.87,80.74-28.6,88.23-5.34,23.06-8.01,41.53-10.23,56.93-2.44,16.88-6.66,46.71-8.05,85.39-.99,27.57-.67,63.07,3.82,104.41-4.93-7.55-10.48-17.17-15.63-28.81-6.38-14.4-9.54-26.04-11.5-33.38-3.95-14.78-5.59-26.28-6.54-33.1,0,0-2.79-19.98-3.01-42.54-.02-1.9-.02-3.84-.02-3.85,0-.7,0-7.39.24-13.61.31-8.15.78-9.3,1.98-26.47.27-3.94.19-3.08.3-4.45,1.05-13.39,3.15-24.06,5.21-34.57.42-2.16.88-4.34.88-4.34,1.17-5.64,1.38-6,1.68-7.65,0,0,.34-1.9.63-2.66.03-.07.11-.26.17-.54.04-.18.04-.24.08-.43.08-.34.15-.48.14-.49-.03-.02-.44.54-2.08,3.13-4.39,7.28-10.58,17.82-17.57,30.76-11.01,20.36-26.34,48.98-40.27,88.03-4.73,13.25-12.21,34.51-17.44,61.59-3.28,16.98-4.63,30.53-5.02,34.82-.95,10.36-1.29,19.41-1.39,26.4-.09,6.6.03,11.63.17,17.1,0,0,.35,13.82,1.22,26.28.69,9.82,5.33,57.86,17.59,98.43,5.55,18.37,24.73,81.82,77.63,136.14,87.9,90.25,206.9,91.65,243.14,92.07,36.73.43,66.74-4.6,86.11-8.84.11-.05.22-.11.33-.15,28.79-5.34,96.73-22.17,157.1-81.59,85.16-83.81,92.93-191.02,94.11-215.95-.03-.07-.06-.15,2.94-38.23,0,0,0-.02,0-.03.25-15.74-.12-44.55-1.07-59.65-1.28-20.34-5.26-37.4-13.22-71.53Z"/>
          <path class="cls-10" d="M233.09,843.62c.18.67.33,1.67.08,3.04v2.86l.61,1.43v2.53l.61,2.09v1.87l.51,1.54c.3,1.02.5,1.86.61,2.42.16.79.34,1.81.72,3.19.17.63.28.96.51,1.32.29.45.45.46,1.12,1.21.65.72.62.84.92.99.19.09.28.08,1.43.11.87.02.93.03,1.12,0,.43-.08.73-.24,1.23-.55.93-.57,1.4-.86,1.84-1.21,1.35-1.08,2.18-2.2,2.66-2.86.37-.51.69-1.04,1.33-2.09.31-.52.81-1.33,1.33-2.31.65-1.23.81-1.69,1.33-2.75,1.4-2.89,1.76-2.6,2.45-4.4.47-1.23.19-1.08,1.02-4.07.58-2.11.71-2.15,1.02-3.52.12-.54.18-.9.61-4.07.45-3.31.44-3.4.61-4.51.26-1.72.34-1.99.61-3.74.36-2.32.28-2.35.51-3.74.38-2.29.58-2.32,1.12-5.06.49-2.48.34-2.54.82-4.73.36-1.67.73-2.93,1.12-4.29.74-2.55.92-2.75,1.43-4.62.62-2.26.45-2.34,1.02-4.62.64-2.57,1.36-4.51,1.94-6.05,1.17-3.12,1.32-2.82,2.15-5.28.7-2.1,1.08-3.79,1.43-3.74.22.03.11.73.61,2.09.45,1.21,1.02,2.31,1.02,2.31.11.21.3.57.41,1.1.08.4.15.75,0,1.1-.23.55-.92.88-.92.88-.57,1.17-.59,2.05-.51,2.64.03.21.05.18.41,1.43.34,1.15.51,1.74.61,2.31.1.54.2,1.06.2,1.76,0,.41,0,1.42-.41,2.53-.3.81-.46.7-1.23,2.09-.72,1.29-1.01,2.16-1.12,2.53-.3.95-.44,1.43-.31,1.98,0,0,.08.34.92,1.65.24.3.53.74.41,1.1-.14.41-.67.35-1.12.77-.47.44-.51,1.1-.61,2.09-.11,1.07-.31,2.12-.41,3.19-.17,1.78-.3,1.71-.72,4.62-.31,2.18-.27,2.43-.51,4.18-.26,1.89-.48,2.87-1.12,6.05-.72,3.55-1.28,6.47-1.53,7.81-.58,3.07-.94,5.31-1.33,7.7-1.36,8.37-2.27,15.71-2.45,17.16-1.57,12.7-2.42,23.24-2.56,24.97-1.31,16.53-.79,19.68-2.56,28.6-.43,2.16-1.03,4.87-1.64,9.13-1.15,8.06-.45,8.71-1.33,15.51-1.28,9.98-3.24,12.2-1.74,17.16.71,2.34,1.75,5.77,4.4,6.93,1.3.57,2.89.54,3.58,1.87.41.8.27,1.65.1,2.64-.11.65-.41,1.96-2.45,5.17-2.24,3.51-3.05,3.77-3.37,3.85-.78.19-1.27-.05-1.94.44-.72.53-.98,1.42-1.23,2.31-.16.57-.35,1.48-.31,2.64l24.43-.11,1.33-2.31c-.37-1-.59-1.87-.72-2.53-.19-.97-.13-1.09-.2-5.28-.02-1.23-.04-1.94.41-2.31.45-.36,1.1-.17,1.33-.11,2.04.56,5.86.75,12.98,1.1,2.93.14,2-.3,6.95-.33,6.05-.04,5.87.63,9.1.33,5.51-.52,8.72-2.73,10.02-1.1.49.62.5,1.53.51,2.09.02,1.76-.96,2.22-1.43,4.51-.32,1.55-.15,2.75-.1,3.08.2,1.3.68,2.28,1.02,2.86l25.35.11c.18-.55.36-1.42,0-2.2-.24-.52-.59-.73-1.43-1.43-.83-.68.07-.02-1.84-1.65-2.66-2.28-2.59-2.02-3.17-2.64-1.06-1.13-1.54-2.23-2.25-3.85-1.12-2.56-1.68-3.84-1.23-4.95.54-1.33,1.82-.84,4.29-2.53.76-.52,3.51-2.41,4.09-5.5.15-.78.1-1.34,0-2.42-.42-4.59-.63-6.88-.82-7.92-.82-4.56-.45-6.51-1.74-18.04-.28-2.51-1-7.83-2.45-18.48-1.32-9.73-1.22-8.8-1.43-10.45-1.31-10.4-1.07-13.76-2.04-26.4-.82-10.65-1.23-15.97-2.45-23.54-.81-4.98-.76-3.47-3.78-19.58-2.68-14.3-3.02-17.09-2.86-18.48.05-.45.26-1.63-.31-2.75-.51-1-1.17-1.03-1.33-1.87-.15-.82.43-1.15.72-2.64.02-.08.2-1.04.1-1.98-.19-1.83-1.28-2.15-2.15-4.18-.22-.52-.84-2.12-.72-4.07.06-.97.31-2.04.82-4.18.29-1.23.46-1.77.2-2.42-.38-.98-1.23-.92-1.43-1.76-.17-.73.4-1.06,1.02-2.75.55-1.51.48-2.28.72-2.31.57-.06,1.44,4.44,1.64,5.5,1.16,6.13,1.74,9.2,2.15,13.2,1.39,13.84.16,14.35,1.74,18.04,1.28,3,2.29,6.13,3.58,9.13.15.34.48,1.11.72,2.2.4,1.84.12,2.83.2,3.96.12,1.58.87,2.32,3.17,5.39,2.81,3.75,1.92,2.94,4.09,5.72,5.06,6.51,5.99,5.89,8.38,9.13.3.4,1.03,1.42,2.25,1.76,1.01.28,1.93,0,2.25-.11.53-.17,1.28-.42,1.74-1.1.49-.72.36-1.49.31-2.86-.05-1.32.08-2.64.1-3.96,0-.45.11-2.07.31-5.28.29-4.71.33-5.15.2-6.16-.16-1.34-.44-2.31-.2-2.42.26-.12.81,1.01,2.04,2.75.87,1.23,1.92,2.71,3.48,4.07,1.31,1.15,2.51,1.79,3.27,2.2,2.12,1.13,2.14.62,4.29,1.76.94.49,2,1.16,3.68,1.54.86.2,1.37.2,1.64-.11.4-.48.03-1.48-.2-2.09-.1-.28-.58-1.47-1.74-2.53-.67-.61-1.4-1.01-2.15-1.43-.42-.24-.88-.46-.88-.46-.08-.04-.27-.13-.51-.25-.22-.1-.53-.24-.94-.41-.42-.17-.53-.19-.53-.21.02-.1,4.29.77,4.29.77.15.06.97.38,1.33,0,.41-.43.03-1.53-.41-2.2-.51-.77-.92-.68-2.35-1.87-.6-.5-.5-.5-1.23-1.1-.75-.63-1.24-1.04-1.94-1.43-.88-.5-1.03-.36-1.84-.88-.41-.26-.87-.55-1.33-1.1-.13-.15-.74-.9-1.02-2.09-.14-.6-.26-1.1,0-1.43.35-.44,1.14-.24,1.23-.22.57.15.78.52,1.74,1.65.96,1.14,1.49,1.64,1.74,1.87.66.61,1,.92,1.53,1.1.29.1,1.17.39,1.94-.11.15-.09.74-.48.82-1.21.05-.51-.17-1.03-.51-1.32-.42-.36-.76-.15-1.23-.55-.28-.24-.39-.51-.51-.77-.13-.27-.6-.88-1.53-2.09-1.03-1.34-1.55-2.01-1.64-2.09-1.09-1.07-2.29-1.47-3.48-1.87-1.97-.66-2.83-.45-3.37-1.32-.26-.41-.16-.62-.41-1.76,0,0-.22-1.04-.92-2.86-.78-2.04-1.91-3.62-2.76-4.95-.9-1.42-1.66-3-3.17-6.16-2.74-5.74-4.3-9.01-4.8-12.43-.21-1.45-.66-2.85-.92-4.29-.27-1.47-.36-2.28-1.02-2.86-.57-.51-1.21-.52-1.53-1.21-.23-.49-.14-.96-.1-1.32.18-1.62-.48-2.2-1.02-4.95-.28-1.41-.16-1.54-.41-3.3-.4-2.86-1.02-4.84-1.33-5.94-.86-3.07-.43-3.53-1.43-11.33-1.2-9.28-1.79-8.53-2.04-12.54-.04-.69-.16-2.86-1.12-5.28-.5-1.25-1.05-2.11-1.33-2.53-.94-1.39-1.9-2.22-2.15-2.42-.51-.42-.84-.62-3.48-1.98-2.79-1.44-3-1.53-3.37-1.98-1.02-1.25-.71-2.2-1.74-2.86-1.03-.66-1.8.01-2.45-.66-.67-.69-.24-1.77-.41-3.41-.12-1.23-.46-1.57-1.64-4.18-1.47-3.25-.73-2.25-2.86-7.59-.4-.99-.88-2.18-.82-3.74.02-.46.07-1.39.51-2.42.38-.88.65-.91.92-1.65.37-.99.24-1.91.1-2.86-.17-1.13-.37-1.24-.92-3.19-.46-1.63-.69-2.46-.61-3.19.11-1.01.47-1,1.02-2.75.35-1.09.62-1.97.51-2.97-.13-1.17-.72-1.94-1.23-2.64,0,0-.98-1.36-3.27-5.28-.57-.98-1.37-2.71-2.96-6.16-.94-2.03-1.36-3.01-2.45-3.96-.45-.39-1.55-1.32-3.17-1.43-.38-.03-1.46-.09-2.56.55-.7.4-1.13.93-1.53,1.43-1.07,1.32-1.21,2.24-1.64,2.2-.39-.04-.33-.85-1.12-1.87-.46-.6-.94-.91-1.74-1.43-.91-.6-1.37-.89-2.04-.99-.97-.14-1.73.21-2.25.44-.4.18-1.42.66-2.15,1.76-.39.6-.43.96-.72,1.76-.63,1.76-1.15,1.96-2.25,4.07-.84,1.61-.53,1.48-1.43,3.3-.39.8-1.14,2.29-2.35,3.96-1.41,1.94-1.99,2.13-2.45,3.52-.2.61-.53,1.59-.31,2.75.29,1.52,1.2,1.65,1.33,3.19.02.26-.02.91-.1,2.2-.05.75-.07,1.13-.1,1.32-.19,1.19-.55,1.34-.92,2.64-.17.59-.39,1.39-.31,2.42.01.19.08.9.41,1.76.36.93.66,1.04,1.02,1.98.1.25.34.89.41,1.65.07.83-.12,1.29-.61,2.97-.72,2.42-.56,2.24-.92,3.19-.44,1.16-.55,1.07-1.23,2.64-.85,1.97-.64,2.01-1.33,3.41-.68,1.38-.97,1.52-1.23,2.53-.29,1.15-.31,2.2-.31,2.2-.01,1.1.19,1.56-.1,1.87-.35.37-.81-.09-1.64.22-.69.26-1.1.85-1.43,1.32-.44.63-.47.97-.72,1.43-.56,1.04-1.53,1.35-2.66,1.87-.73.34-1.85,1.07-4.09,2.53-2.79,1.82-3.33,2.52-3.68,3.19-.22.41-.39,1.09-.72,2.42-.38,1.52-.72,2.95-1.12,5.28-.26,1.49-.41,2.68-.72,5.06-.48,3.71-.38,3.5-.61,4.95-.18,1.11-.57,3.44-1.43,6.27-.77,2.53-1.02,2.5-1.84,5.28-.67,2.28-.51,2.34-1.12,4.18-.75,2.24-1.08,2.46-1.74,4.62-.59,1.94-.38,1.99-.92,3.52-.58,1.65-.86,1.73-1.84,3.96-.62,1.4-.51,1.38-1.64,4.29-.75,1.93-.88,2.17-1.64,4.07-.99,2.5-.98,2.66-1.94,5.17-1.58,4.1-1.97,4.63-2.86,7.26-.78,2.29-1.22,4.08-1.33,4.51-.19.76-.24,1.07-.34,1.49-.17.72-.21.55-.35,1.16-.13.58-.15.99-.18,1.44-.02.39,0,.46,0,.5.14.44.55.41.8.89.04.09.09.31.17.75.1.51.08.57.15.87.13.55.19.83.38.92.23.11.4-.14.96-.33.59-.2.66,0,1.25-.17.64-.18.63-.43,1.31-.68.35-.13.66-.15,1.29-.2.21-.02.74-.05,1.8-.02.73.02,1.28.06,2,.12,1.02.08.83.09,1.67.14.18.01.61.06,1.47.14.72.07.92.1,1.07.29.24.31.14.8.07,1.15-.06.27-.14.69-.47,1-.25.24-.39.17-1.23.47-.26.09-.14.06-1.03.41-.96.38-1.05.4-1.15.41-.57.05-.61-.2-1.2-.14-.48.04-.47.21-1.07.29-.53.07-.74-.03-.87.14-.18.26.09.77.13.86.15.29.39.58.93.86.67.34,1.27.45,1.67.5.94.12,1.66.05,2.67-.04.65-.06,1.12-.14,1.74-.24.8-.13,1.2-.21,1.67-.36.67-.21.72-.33,1.98-.86.83-.35,1.25-.53,1.6-.57.28-.03.78.04,1.78.18.68.1.98.17,1.24.43.08.08.34.34.36.72.01.35-.2.61-.36.81-.21.26-.43.41-.71.57-.77.46-.89.42-1.22.65-.4.27-.33.4-1.27,1.58-.51.64-.49.58-.93,1.15-.53.69-.56.78-.93,1.22-.51.61-.76.92-1.07,1.08-.54.28-.75.06-1.24.36-.35.21-.33.37-.82.93-.39.44-.88.99-1.6,1.29-.51.21-.56.04-1.2.29-.45.17-.55.31-1.27.72-.25.14-.71.41-1.24.65-.85.38-1.27.57-1.82.57-.67,0-.67-.26-1.69-.43-1.01-.17-1.11.08-1.78-.14-.56-.19-.53-.38-1.53-1-.82-.51-1.24-.77-1.8-.81-.71-.05-1.29.22-1.51.33-.45.22-.73.37-.89.67-.35.69.35,1.48.7,2.76Z"/>
          <path class="cls-16" d="M151.66,930.85l-2.73,21.15-1.2,17.71v21.59l.87,1.77h72.18l1.96-1.99-1.09-5.42-5.34-30.11-1.42-9.08.76-95.76,1.85,3.21,4.14,3.87,3.16,2.1,3.05.55,1.09-1.77.98-2.44,1.64-6.64v-3.87l1.09-2.44v-2.32l.65-.77h1.96l1.09.66.55.78,1.09.11h1.09l1.53.55,2.18-.44,1.31-.44.76-1.22h3.27l.76-1,.65-.78,1.09-1.11,1.09-.55,1.09-1,.76-.77.55-.89.76-1.11.55-.66,1.2-.55,1.2-.66.65-.55v-.89l-.65-.55h-1.42l-1.2-.55h-1.2l-1.53,1-2.07.89-1.96.33-2.07.22-2.18-.11-1.96-.55-.55-1.77h3.38l1.31-.44,1.31-.55.98-.89.33-1.22-.55-1h-6.21l-1.09-.66h-.76l-.98.44-1.53.33-.76.55-1.09.55-.87.33-.65-2.21-.87-2.32-1.31-1.33-1.96-2.21-1.64-1.99-1.96-2.21-1.53-1.9-.44-2.31-.98-1.44-1.31-.89-.87-2.66v-1.66l-1.09-1.22-.55-1.11v-2.55l.44-4.76.33-5.31.87-3.99v-6.09l.65-2.21-.65-4.65v-4.76c-.58-2.94-1.56-5.97-3.27-8.41-2.6-3.71-5.67-4.65-10.25-6.97-3.5-1.78-7.34-4.52-10.36-6.86-.74-.58-.75-1.45-.37-2.32,1.49-.14,2.98-.27,4.46-.41,1.42-.13,2.98-.32,3.96-1.38,1.88-2.04-.33-5.73,1-8.18.74-1.35,2.91-2.07,3.32-3.55.49-1.77-1.51-3.57-2.12-5.31-2.01-5.72,4.28-11.8,2.51-17.6-.52-1.71-1.43-2.12-2.73-3.87-2.15-2.92-4.81-5.03-7.85-6.97-1.22-.78-2.59-1.38-4.03-1.33-1.18.04-3.94-.18-5.12-.24-2.29-.11-2.45.7-4.47,1.02-2.02.32-4.08,1.59-5.37,3.19-.79.98-2.09,1.72-2.84,2.73-1.64,2.21-2.65,4.55-3.6,6.53-1.74,3.65-2.52,7.35-1.82,11.24.31,1.69,1.62,3.71,1.44,5.42-.34,3.1-2.96,5.97-3.07,9.09-.09,2.64.76,5.42,2.02,7.37-1.31.31-1.97,2.38-2.49,3.65-.51,1.27-1.3,1.96-2.33,2.85-.55.48-1.31.62-1.89,1.05-4.83,3.52-9.19,6.73-13.88,9.94-1.01.69-2.05.68-2.72,1.72-.73,1.14-1.14,2.45-1.48,3.76-1.32,4.98-.71,9.52-.56,14.72.09,3.3-.56,6.2-.76,9.5-.17,2.77-.8,5.32-.76,8.1.05,4.25.32,8.3-.23,12.59-.51,3.97,1.28,7.43,4.18,9.79,2.59,2.11,5.66,3.59,8.08,5.89.39.37.77.78.91,1.3.14.5.03,1.04-.06,1.55-.6,3.12-.96,6.29-1.06,9.47-.21,6.35-1.44,13.38-.7,19.21.9,7.11.5,14.5.65,21.81.26,12.36-.29,15.04-2.62,21.92-1.22,3.6-.22,8.47-1.09,12.18-.67,2.85-.42,6.38-.65,9.3-.33,4.04-1.07,7.23-1.96,11.18.09-.5-1.44-2.1-1.35-2.6l1.35,2.6Z"/>
          <path class="cls-15" d="M475.52,791.33c.11-.07.21-.12.31-.17"/>
          <path class="cls-17" d="M460.69,799.07c-.13.06-.24.11-.33.14l1.57-.69c.23.54.57,2.03.99,2.99.81,1.85,1.14,2.48,1.14,2.48,1.08,1.41,2.41,3.63,3.51,7.2,2.76,5.7,3.63,8.03,3.74,8.89.01.11.09.74.25,1.59.07.38.1.48.33,1.53.2.94.31,1.42.33,1.59.13.99-.01,1.11.15,1.85.14.62.26.62.42,1.27.15.57.11.76.2,1.84.11,1.21.18,1.26.3,2.51.05.53.07.92.11,1.69.16,2.92.08,3.58-.1,4.11-.15.43-.4,1.17-1.04,1.9-.8.93-1.41.94-2.18,2.01-.53.74-.69,1.37-.73,1.5-.17.71-.06,1.14,0,1.9.16,2.01-.36,2.29-.21,4.81.05.78.09.65.1,1.2.03,1.27-.19,2.1-.1,3.61.03.55.09.83.31,1,.42.33,1.16.05,1.55-.1.31-.12,1.28-.5,1.87-1.5.23-.4.33-.94.52-2.01.13-.75.2-1.14.21-1.7,0-.88-.15-1.15,0-1.7.15-.56.48-.96.73-1.2,0,0,.86-1.61,1.24-1.5.06.02.08.07.19.33.25.57.25.47.43.88.2.46.35.95.52,1.6.22.84.22.99.41,1.8.32,1.31.38,1.17.52,1.9.15.79.06.82.21,2.51.13,1.46.21,1.53.1,1.9-.28.96-.92.92-1.14,1.8-.24.97.41,1.46,0,2.11-.28.44-.63.27-1.04.8-.36.47-.39,1-.41,1.6-.03.63-.05.98.21,1.3.38.47,1.05.5,1.14.5,1,.02,1.81-.87,1.87-.8.02.03-.1.15-.18.24-.31.34-.44.66-.65,1.17-.32.78-.38,1.51-.41,2.01-.05.74-.1,1.46.21,2.31.14.39.3.8.73,1.1.08.06.71.49,1.24.3.55-.2.65-.94.93-2.01.29-1.09-.16,1,1.04-2.91.44-2.34.64-4.27.75-5.64.15-1.84.16-3.26.74-5.13.38-1.23.68-1.61.99-2.38,1.2-3.01.1-5.91-.73-12.21-.26-1.98-.23-2.29-.31-3.39-.1-1.42-.23-2.45-.29-2.87-.14-1.12-.47-5.13-1.26-16.93-.06-1.59-.21-5.46-.49-9.21-.05-.71-.15-2-.33-3.7-.1-.97-.2-1.99-.39-3.34-.31-2.32-.37-2.05-.77-4.7-.2-1.33-.02-1.28-.45-2.58-.22-.67-.39-.94-.52-1.68-.04-.26-.55-.78-.59-1.17-.07-.67-.66-.63-.11-1.06l.66-.63c.43-.23.89-.48,1.36-.73l-1.12-2.47c-.43-1.65-.22-2.16-.83-2.91-.22-.27-.36-.51-.39-.92-.03-.45.13-.83.39-1.09,0,0,.66-.94,1.35-1.8.96-1.22,1.18-1.33,1.24-1.8.06-.46-.09-.83-.31-1.4-.32-.83-.74-1.38-.83-1.5-.63-.85-1.28-2.07-2.59-4.51-.86-1.61-.59-1.43-1.87-4.11-1.33-2.81-1.55-2.84-2.38-4.71-1.09-2.44-.71-2.36-1.97-5.51-.69-1.72-1.34-3.09-2.59-5.71-1.13-2.37-1.02-2.01-1.55-3.21-1.09-2.45-1.24-3.29-2.18-4.61-.4-.57-1.06-1.49-2.18-2.31-1.37-1-2.09-.87-7.26-2.51-1.62-.51-2.13-.71-2.7-1.2-.85-.75-1.06-1.53-1.97-1.7-.58-.11-.97.11-1.45-.2-.36-.23-.44-.56-.62-.9-.39-.76-1.01-1.15-1.87-1.7-.83-.54-1.79-.9-3.11-1.4-.66-.25-1.08-.39-1.14-.7-.07-.38.49-.63,1.04-1.3.56-.69.74-1.37.93-2.11.36-1.39.2-2.52.1-3.11-.19-1.23-.6-2.11-.93-2.81-.77-1.62-1.45-2.17-1.76-3.71-.14-.69-.11-1.09-.1-1.2.07-.91.46-1.2.73-2.21.23-.85,0-.84.21-1.8.2-.96.43-1.01.93-2.41.43-1.19.66-1.82.62-2.71-.03-.67-.05-1.33-.52-1.9-.25-.3-.49-.43-.62-.8-.17-.5.01-.98.1-1.2.42-1.03.62-1.55,1.45-3.41.66-1.49.77-2.78.83-3.51.08-.95.18-2.19-.31-3.61-.31-.89-.83-1.57-1.87-2.91-.25-.32-1.04-1.32-3.21-3.61-1.4-1.47-2.1-2.21-2.7-2.71-1.7-1.43-1.76-1.01-3.94-2.71-1.36-1.05-1.91-1.67-3.01-1.8-.44-.06-1.18-.06-1.97.1-.41.08-.8.16-1.24.4-.94.51-.86,1.05-1.45,1.2-.35.09-1.03-.27-2.37-.98-.89-.47-1.15-.64-1.66-.7-.66-.07-1.19.11-1.45.2-.79.28-.98.63-1.97,1.4-1.29,1.01-1.54.87-2.59,1.8-.63.57-.47.55-1.24,1.3-1,.96-1.28.99-2.69,2.21-.1.09-.04.04-1.66,1.5-1.37,1.24-1.52,1.37-1.87,1.7-1.17,1.11-1.75,1.67-1.97,2.11-.37.75-.39,1.41-.41,2.71-.02,1,.08,1.74.21,2.71.16,1.19.25,1.84.52,2.71.27.86.38.85,1.04,2.61.44,1.18.56,1.65.41,2.21-.14.52-.37.52-.73,1.2-.55,1.05-.53,2.07-.52,2.51.01.53.04,1.48.62,2.41.42.68.78.78,1.04,1.5.15.44.05.48.21,1.4.14.8.32,1.4.41,1.7.39,1.26.57,1.16.62,1.7.08.75-.22,1.33-.73,2.31-.49.95-.68.95-1.24,2.01-.43.8-.67,1.46-.83,1.9-.4,1.11-.6,1.66-.62,2.41-.03,1.06.28,1.86.41,2.21.23.59.5,1.27,1.14,1.9.28.28.56.47.73.9.04.11.29.74,0,1.1-.25.31-.63.13-1.45.3-.69.14-.57.3-1.87.8-.93.36-1.19.35-1.55.7-.18.17-.15.2-.62.9-.49.73-.74,1.09-1.04,1.3-.47.33-.84.27-1.35.4-1.34.35-1.4,1.48-2.59,2.31-1.28.89-1.78-.01-4.15.8-1.63.56-1.56,1.04-3.52,1.7-1.51.51-1.8.31-2.49.8-.99.7-1.11,1.63-1.76,3.21-.58,1.38-.58.91-2.28,4.01-1.18,2.15-1.89,3.44-2.59,5.21-.98,2.46-.59,2.42-1.55,4.81-.85,2.12-1.19,2.22-2.59,5.31-1.1,2.41-.83,2.21-1.66,3.91-1.57,3.21-2.08,3.04-3.01,5.41-.69,1.76-.67,2.54-1.55,3.51-.21.23-.57.58-.62,1.1-.02.17-.01.48.83,1.8.55.86.82,1.29,1.14,1.6.58.57.97.69,1.04,1.1.08.49-.36.94-.52,1.1-.58.63-.91,2.12-1.55,5.11-.26,1.19-.65,3.01-.93,5.51-.33,2.88-.12,3.16-.52,4.81-.48,2.02-.93,2.19-1.55,4.21-.53,1.71-.63,3.25-.83,6.32-.19,2.88-.15,5.18-.1,6.52.11,3.1.41,5.57.52,6.42.43,3.33.93,5.24.83,8.22-.04,1.15-.16,2.05-.21,2.41-.27,1.94-.71,3.25-.93,4.01-.27.93-.29,1.33-.62,6.42-.47,7.16-.5,7.43-.52,8.72-.03,2.17.07,1.27.1,5.61.02,2.68,0,3.3.31,4.41.3,1.04.39.72,1.66,3.81.61,1.5.73,1.92,1.24,2.61.56.76.9.9,1.14,1.6.24.71.08,1.13.52,1.7.12.16.46.6.93.6.4,0,.68-.32.93-.6.1-.11.58-.67.73-1.6.02-.15.12-.79-.1-1.6-.23-.87-.55-.93-.83-1.9-.19-.66-.25-1.36-.1-1.4.07-.02.14.12.38.29.29.21.58.27.76.31.76.16,1.55-.1,1.55-.1,0,0,.16-.74.1-1.4-.02-.23-.07-.9-.52-1.5-.34-.47-.56-.41-.73-.8-.17-.42.04-.59,0-1.3-.01-.22-.04-.76-.31-1.3-.34-.69-.71-.66-.93-1.2-.19-.45-.02-.68.1-1.7.16-1.26-.05-1.21.1-2.31.08-.56.23-1.08.52-2.11.38-1.34.44-1.27.52-1.8.16-1.1-.12-1.34.21-1.9,0,0,.09-.15,1.04-1.1,1.27,1.03,1.45,1.3,1.45,1.3.23.34.26.57.41,1.9.32,2.65.36,2.94.52,3.41.21.64.24.46.73,1.7.25.65.33.9.62,1.1.3.2.65.2,1.35.2.64,0,.96,0,1.14-.2.28-.31.07-.91,0-1.1-.14-.41-.02-.29.21-7.82.05-1.65-.02.4-.1-2.61-.01-.44-.02-.83-.21-1.3-.22-.57-.54-.84-.93-1.3-.14-.17-.54-.78-1.35-2.01-1-1.53-1.5-2.29-1.55-2.41-.27-.58-.56-1.51-.21-4.31.31-2.41.86-4.31,1.24-5.51.87-2.72,1.21-2.85,2.38-6.22.32-.92.7-2.15,1.45-4.61.55-1.79.51-1.72,1.55-5.21,1.24-4.16,1.31-4.32,1.45-5.11.18-1,.42-2.76.52-4.71.06-1.11.23-2.2.31-3.31.03-.41.07-.94.31-1.6.19-.52.42-.87.83-1.5.75-1.15.92-1.08,1.24-1.8.18-.4.23-.64.52-1,.21-.26.49-.62.93-.7.3-.06.45.06,1.24.3.57.17.85.26,1.14.3.32.04,1.21.16,1.87-.3.61-.43.93-1.3.93-1.3,0,0,.1-1.7.1-1.7,0,0,.21-1.9.21-1.9,0,0-.17-.71-.1-1.3.06-.53.34-1.2.62-1.2.22,0,.3.38.73,1.1.38.65.5.65.93,1.3.23.34.27.46,1.04,2.01.81,1.64.85,1.7.93,2.01.24.9.22,1.73.21,2.01-.01.31-.03.17-.1,1.1-.1,1.21-.07,1.35-.21,1.7-.18.46-.32.46-.52,1-.08.22-.2.57-.21,1-.01.93.52,1.8.52,1.8,0,0,.37.54.52,1,.03.09.26.86-.1,1.5-.25.45-.52.35-1.14.9-.25.23-.82.73-1.04,1.5-.1.34-.07.76,0,1.6.06.79.09,1.18.21,1.5.34.93.89,1.05.83,1.6-.04.38-.31.38-.73,1.1-.16.27-.46.79-.52,1.4-.05.54.11.77.41,1.8.22.76.38,1.32.41,1.8.08,1.2-.63,2.14-1.04,2.71-1.17,1.66-1.76,3.63-2.7,5.41-1.02,1.96-1.58,3.58-2.69,6.82-1.59,4.63-2.39,6.94-2.7,9.93-.4,3.96.42,4.39-.41,7.42-.67,2.41-1.33,2.62-2.28,5.91-.73,2.51-.4,2.6-1.24,5.51-.97,3.35-1.38,3.19-1.66,5.21-.28,2.08.06,2.98-.73,4.41-.23.41-.54.86-.41,1.4.12.54.56.66,1.76,1.6,1.31,1.03,1.19,1.21,1.87,1.5.71.31.98.18,1.97.6.67.29,1.01.43,1.24.7.43.5.36,1.15-.1,3.51-.41,2.08-.53,2.5-.73,3.71-.19,1.18-.13,1.13-.31,2.21-.29,1.71-.48,2.06-.73,3.41-.42,2.27-.04,2.11-.41,3.71-.48,2.04-1.03,2.03-1.24,3.81-.14,1.17.07,1.44-.21,2.61-.19.78-.4,1.18-.21,1.7.13.35.5.64,1.24,1.2.57.43,1.04.79,1.76,1.2.89.51,1.04.45,1.35.8.44.5.73,1.3.73,1.3,0,0-1.58,4.48-2.28,7.32-.59,2.39-.65,5-.73,10.13-.02,1.21-.09,6.37.31,13.53.17,3.1.27,3.62.41,6.92.22,4.83.21,8.09.21,8.82-.01,3.96-.02,5.94-.31,8.42-.25,2.14-.45,2.65-.73,5.41-.15,1.53-.19,2.39-.52,3.81-.37,1.62-.56,1.59-.73,2.81-.15,1.15-.08,1.94-.52,3.11-.32.87-.63,1.16-.83,1.3-.38.28-.66.28-.93.6-.35.41-.32.95-.31,1.2.05,1.6-.48,3.28-.83,4.41-.35,1.13-.81,2-1.04,2.41-.51.94-.63.91-1.35,2.21-.5.89-.6,1.19-1.04,1.7-.54.64-1.14,1.1-1.14,1.1-.62.48-.86.51-1.14.9-.22.3-.55.94-.31,1.3.27.4,1.08.21,2.38.1,1.14-.09,2.28,0,3.42,0,2.3,0,2.27.1,4.25.1,1.98,0,1.83-.1,5.39-.2,3.09-.09,3.98-.03,4.35,0,1.14.08,3.11.3,3.11.3,0,0,.39-.79.52-1.1.35-.87-.04-1.29-.21-3.41-.07-.92,0-.95-.1-1.6-.07-.45-.14-.69-.52-2.01-.54-1.85-.61-2.12-.62-2.61-.01-.43-.02-.97.21-1.6.27-.74.58-.84.83-1.5.25-.68.18-1.27.1-1.9-.17-1.3-.64-2.2-.83-2.61-.36-.8-.39-1.47.31-6.02.52-3.36.78-5.04,1.04-6.12.5-2.08,1.01-3.51,1.97-6.22,1.29-3.63,1.45-3.54,2.38-6.32,1.29-3.82.97-3.94,2.07-6.72.56-1.4.52-1.09,2.38-5.31,1.38-3.13,1.63-3.83,1.87-4.71.38-1.42.2-1.33.83-4.41.52-2.52.68-2.76.83-4.11.13-1.14.12-2.03.1-3.81-.02-2.71-.19-2.76-.1-4.51.08-1.51.22-1.72.21-3.11,0-1.01-.08-1.44,0-2.51.07-.95.17-1.02.1-1.5-.15-1.14-.83-1.95-.62-2.11.05-.04.1-.01.28.02.07.02.41.04,1.07.08.98.06,4.11,0,6.63.2.98.07,1.65.13,2.59.3,2.46.46,2.7,1.01,4.98,1.5.05.01,1.52.17,4.46.5,2.85.32,2.95.32,3.21.3.57-.05,1.65-.19,1.76.1.02.05,0,.1,0,.12-.07.2-.04,1.2,0,3.19.04,1.86.27,3.7.41,6.62.17,3.42.03,4.11.41,6.22.22,1.19.28,1.05.62,2.71.69,3.33.49,4.17.93,6.02.45,1.9.79,1.57,2.49,5.41.52,1.19.48,1.2,2.59,6.82,1.49,3.97,1.56,4.09,2.18,5.81,1.2,3.35,1.72,5.05,2.07,6.32.39,1.39.64,2.43.83,3.21.7,2.94,1.06,4.41,1.14,6.12.07,1.4-.09,1.38,0,3.31.1,2.17.3,2.3.21,3.51-.15,2.07-.78,2.22-.52,3.51.23,1.11.75,1.28.93,2.61.11.83,0,1.49-.1,2.11-.25,1.44-.6,1.5-.93,2.91-.36,1.49.04,1.42-.31,3.41-.22,1.27-.49,1.9-.1,2.31.2.22.47.25,1.45.3,1.94.1,2.8.1,2.8.1.93,0,1.87,0,2.8,0,2.2,0,2.05.01,2.59,0,1.88-.05,1.96-.17,2.9-.1,1.18.09,1.13.29,2.48.46,1.29.16,2.26,0,3.32,0,0,0,1.08-.07,2.59-.48.71-.19,1.15-.37,1.24-.7.09-.31-.24-.44-.31-1-.08-.67.28-.87.1-1.3-.1-.26-.29-.32-.83-.7,0,0-.32-.23-1.14-.9-.52-.43-.84-1.19-1.45-2.71-.7-1.72-.63-1.96-1.14-2.61-.36-.46-.57-.57-.73-1-.22-.6-.03-.96,0-2.01.01-.54.03-1.09-.1-1.6-.28-1.06-1.08-1.48-1.66-2.11-.96-1.05-.71-2.05-1.04-4.91-.34-3.01-.69-2.58-1.14-5.91-.32-2.37-.16-2.72-.41-5.81-.36-4.34-.7-3.9-.83-6.62-.09-1.83.08-1.72.52-9.22.12-2.09.1-1.93.21-3.71.28-4.57.38-4.83.41-6.72.05-2.68-.16-2.39-.1-5.41.04-2.1.14-2.44.21-5.31.05-2.02.07-3.03,0-4.41-.05-.89-.17-2.67-.52-4.71-.21-1.2-.45-2.21-.52-2.51-.16-.65-.23-.97-.31-1.2-.57-1.71-1.33-2.03-1.66-3.51-.13-.59-.22-1,0-1.4.28-.53.81-.53,1.76-1.2.65-.46.51-.53,1.14-1,1.19-.88,1.81-.73,2.28-1.3.52-.65.32-1.57.1-2.51-.97-4.28-1.45-6.41-1.45-6.42-.17-.55-.89-2.97-1.35-4.91-.62-2.65-.67-4.15-1.04-8.32-.39-4.43-.35-2.87-.93-9.12-.47-5.05-.53-6.35-1.04-11.43-.22-2.25-.34-3.38-.52-4.91-.51-4.29-.69-4.67-1.24-9.22-.34-2.76-.38-3.56-.73-5.61-.2-1.19-.41-2.23-.83-4.31-.51-2.54-.41-1.86-1.24-5.81-.42-1.97-.68-3.27-1.24-4.81-.38-1.05-.58-1.58-.83-2.01-.6-1.01-1.13-1.38-1.04-2.01.07-.44.36-.42.83-1.2.25-.41.65-1.08.62-1.9-.02-.64-.3-1.09-.73-1.8-.17-.28-.51-.84-1.14-1.4-.66-.6-.82-.46-1.04-.8l.12-.89c0-.57-.02-1.52-.05-2.71-.13-4.81-.19-7.21-.36-8.41-.21-1.47-.42-2.22-.18-3.39.15-.72.51-1.76,1.09-2.75.51-.87.71-.88.91-1.48.34-1.03-.03-1.63,0-2.75.04-1.47.77-3.26,1.47-3.32,1.33-.11,2.89,6,2.98,6.34.42,1.69.47,2.57,1.19,3.96.45.87,1.31,2.52,2.64,2.71.18.03.33,0,.51-.06"/>
          <path class="cls-9" d="M454.36,802.99c.05,0,.1,0,.16,0,1.14-.05,1.5.18,2.41,0,.51-.1.9-.28,1.15-.4,2.9-.25,3.56-.2,3.56-.2.49.03.45.07,2.87.6,2.19.48,1.11.21,3.44.7,2.11.45,2.79.63,3.21.28.16-.13.25-.51.43-1.28.12-.49.21-1.04.26-1.65.03-.42.05-.72,0-1.13-.03-.27-.08-.6-.26-.98-.16-.34-.3-.63-.6-.83-.47-.3-.78-.03-1.64-.23-.8-.19-1.29-.6-1.46-.75-.27-.24-.53-.46-.6-.83-.07-.33,0-.8.34-1.05.46-.34,1.09-.04,2.24.08.31.03,1.13-.03,2.75-.15,1.75-.13,2.63-.2,3.44-.3,1-.13,1.02-.17,2.93-.45,1.34-.2,2.01-.29,2.24-.3,1.41-.04,2.92.4,4.29.27,1.44-.14.95-1.31,1.04-2.29.19-2.08,1.78-4,2.77-5.86.88-1.66,1.49-3.58,1.6-5.41.1-1.63-.85-3.29-1.36-4.83-.02-.06-.04-.12-.06-.18-.85-2.65-1.08-4.05-1.15-4.51-.14-.93-.19-1.67-.23-2.31-.1-1.49-.19-2.82,0-4.31.09-.68.4-1.73,1.03-3.81.81-2.68,1.23-4.03,1.61-4.61.76-1.17,1.86-2.27,3.1-3.51.94-.94,1.04-.95,1.38-1.4,1.08-1.47.65-2.26,1.38-3.91.61-1.39,1.55-2.27,2.75-3.41,1.13-1.07,1.81-1.71,2.98-2.31.92-.47,1.48-.58,1.95-1.2.47-.63.52-1.33.57-2.11.06-.86-.09-1.04-.11-2.01-.04-1.48.28-1.52.23-2.61-.09-1.82-1.07-3.05-.92-3.11.1-.04.6.55.46.7-.11.12-.54-.14-1.15-.2-.8-.08-1.43.23-1.84.4-1.38.59-2.89.74-4.48.9-1.22.12-2.51.24-4.02-.2-1.07-.31-1.75-.76-1.95-.9-.41-.28-1.15-.81-1.61-1.7-.12-.24-.24-.86-.46-2.11-.18-.98-.18-1.16-.11-1.4.21-.73.93-1.18,1.38-1.4,0,0,.23-.62.23-1,0-.9-1.3-1.57-1.26-1.6.03-.03.79.51.8.5.01-.01-1.34-.65-1.38-1.5-.02-.48.4-.56.57-1.4.07-.35.17-.82-.11-1.2-.25-.33-.54-.26-1.03-.6-.41-.29-.86-.79-.92-1.3-.06-.57.41-.82,1.15-1.8.4-.53.16-.32,1.38-2.41.97-1.67,1.13-1.82,1.15-2.31.02-.62-.22-.74-.23-1.7-.01-.87.18-.94.11-1.5-.07-.66-.35-.75-1.03-2.01-.43-.79-.77-1.45-.92-2.31l-.06-1.02c-.27-.98-.59-1.79-.86-2.39-.53-1.17-.81-1.41-1.15-2.41-.19-.55-.46-1.37-.46-2.41,0-1.09.3-1.17.46-2.71.14-1.38-.09-1.4.11-2.11.33-1.11,1.14-1.81,1.95-2.51.33-.28,1.35-1.13,3.1-1.9.93-.41,1.14-.39,4.25-1.3,1.69-.5,2.56-.75,3.56-1.1,1.67-.58,1.94-.79,3.33-1.3,1.19-.44,2.95-1.09,5.28-1.5.67-.12,2.82-.48,5.62-.4.37.01,1.71.05,3.44.3,1.18.17,2.2.31,3.44.7,1.2.37,1.98.78,3.56,1.6.99.51,2.15,1.13,3.56,2.11.7.49,1.69,1.18,2.75,2.21,1.71,1.66,2.6,3.22,3.1,4.11,1.4,2.51,1.84,4.64,2.07,5.81.21,1.06.53,2.77.34,5.01-.17,2.05-.68,3.61-1.15,5.01-.76,2.3-1.61,4.41-1.61,4.41-.53,1.32-.82,1.92-.8,2.91.02,1.33.58,2.41.8,2.81.64,1.13,1.04,1.03,1.49,2.01.48,1.03.41,1.97.34,2.91-.05.63-.11,1.5-.57,2.51-.21.45-.87,1.24-2.18,2.81-1.1,1.31-1.26,1.45-1.49,1.6-.93.62-1.74.69-1.84,1.2-.03.19.05.35.57,1,.6.74.9,1.12,1.38,1.6.98.99,1.47,1.48,1.95,1.7.72.33,1.12.25,1.61.7.33.31.53.69.69,1,.37.72.32,1.02.57,1.1.37.11.62-.44,1.38-.6.29-.06.57-.04,1.72.3,1.32.4,1.98.59,2.3.8.64.42.92.92,1.49,1.9.25.44.65,1.2,1.03,2.31.63,1.84.32,2.07.92,3.01.44.69.68.67,1.38,1.7.44.66.73,1.08.92,1.7.12.39.47,1.57-.11,2.71-.42.81-.89.78-1.26,1.5-.46.9-.16,1.77.11,2.71.5,1.68.72,3.42,1.15,5.11.32,1.24.71,2.78,1.03,4.51.34,1.81.25,1.95.69,5.41.46,3.65.62,3.98.92,6.82.08.78.04.49.34,4.01.24,2.75.46,5.19.57,6.52.41,4.61.42,4.56.46,5.31.07,1.49.07,2.65.23,4.81.12,1.67.22,2.37.34,3.01.12.6.23,1.2.34,1.8.21,1.06.24,1.17.23,1.4-.03.82-.54,1.43-1.15,2.11-1.97,2.19-2.96,3.28-4.13,3.91-1.47.79-2.15.68-3.44,1.7-.61.48-1.21.96-1.49,1.7-.46,1.22.29,2.29,1.03,3.81.4.82.84,2.25,1.72,5.11.9,2.92,1.22,5.24,1.38,6.42.07.55.18,1.4.34,6.82.13,4.15.19,6.25.11,7.42-.13,2-.28,1.93-1.03,7.22-.26,1.83-.17,1.35-.92,7.02-.82,6.24-.83,6.1-.92,7.12-.4,4.67.06,4.84-.46,7.72-.51,2.79-.92,2.5-1.84,6.52-.69,3.02-.48,3.26-1.26,6.62-.36,1.55-.39,1.43-1.38,5.31-.85,3.34-1.02,4.18-1.03,5.41,0,.59,0,2.11.46,4.01.35,1.47.62,1.7,1.15,3.41.48,1.54.37,1.71,1.03,4.81.52,2.45,1.02,4.37,1.26,5.31.44,1.7.45,1.58,1.15,4.21.56,2.11.65,2.53,1.03,3.91.51,1.83.92,3.07,1.15,3.81,1.06,3.38,1.11,4.46,2.18,8.52,1.31,4.95,1.59,4.64,2.87,9.62.72,2.79,1.28,5.41,1.49,6.42.45,2.1.46,2.34,1.26,6.22,0,0,.45,2.18,1.15,5.31.54,2.44.7,3.06.92,3.81.6,2.04.79,2.1,1.03,3.31.32,1.6.02,1.7.23,4.21.1,1.25.22,2.69.69,4.51.08.32.34,1.29.69,2.71.39,1.57.45,1.92.34,2.41-.26,1.25-1.26,2.04-1.61,2.31-.99.78-2.03,1.01-2.87,1.2-1.46.33-2.67.24-3.1.2-.81-.08-.65-.17-3.1-.7-1.25-.27-1.99-.4-2.87-.2-.47.1-.87.19-1.15.5-.54.59.07,1.2-.11,2.51-.16,1.17-.83,1.97-1.03,2.21-.21.24-.63.73-1.38,1.1-.7.35-1.34.43-2.07.5-1.74.18-2.61.27-3.67.3-1.25.04-2.94.09-5.16-.1-.75-.06-1.38-.14-1.84-.2,0,0-.6-.51-1.26-.7-.51-.15-.96-.08-1.49,0-.6.09-1.07.26-1.38.4,0,0-1.92.37-2.07.4-1.84.35-3.68-.03-6.08-.2-.54-.04-2.77,0-7.23.1-1.61.03-2.75.06-4.36.1-2.62.07-2.96.1-4.13.1-1.96,0-1.98-.07-4.48-.1-2.6-.03-2.71.04-5.28,0-1.82-.03-1.72-.07-3.79-.1-2.01-.03-3.02-.05-4.25,0-.99.04-2.01-.06-2.98.1-.54.09-1.11.23-1.72,0-.3-.11-.21-.16-1.03-.6-.16-.09-.54-.29-1.02-.6-.23-.81-.24-1.01-.24-1.01,0-.25,0-.74.34-1.2.35-.48.87-.66,1.26-.8.56-.2,1.1-.23,2.18-.3,1.34-.08,1.49,0,2.41-.1.39-.04.99-.16,2.18-.4,2-.4,2.36-.52,2.75-.7.71-.33,1.61-.92,1.49-1.2-.07-.17-.47-.14-1.38-.2,0,0-1-.07-2.41-.3-.77-.13-1.4-.35-2.64-.8-2.05-.74-3.07-1.11-3.56-1.5-1.4-1.13-1.75-2.61-1.84-3.11-.15-.87-.02-1.54.11-2.21.23-1.13.63-1.9,1.26-3.11,1.93-3.67,1.9-3.6,1.95-3.71.58-1.31.61-1.97,1.15-4.91.63-3.43.6-2.67,1.15-5.71.63-3.53,1.06-5.93,1.26-9.12.14-2.17-.03-1.5.11-5.71.11-3.09.22-4.02.34-7.72.1-2.98.04-2.67.11-3.91.11-1.69.24-2.44.92-7.32.54-3.88.54-4,.8-5.71.52-3.43.81-4.98.92-5.51.23-1.17.46-2.25.69-3.31.5-2.32.65-2.85.8-3.61.14-.67.45-2.34.46-6.72,0-3.7-.21-3.45-.23-6.92-.02-3.35.19-3.71.23-8.52.02-2.38-.03-2.15,0-4.51.04-3.2.16-5.73.23-7.12.08-1.72.16-2.88.23-3.91.19-2.77.29-3.59.34-4.01.18-1.32.38-2.35.57-3.31.41-2.07.52-2.13.69-3.11.44-2.51-.12-2.82.11-6.02.05-.66.22-1.84.57-4.21.18-1.21.3-1.92.57-3.81.21-1.43.32-2.14.34-2.41.22-2.02.05-2.26.23-4.71.2-2.72.23-3.11.23-3.11.1-1.27-.23-2.49-.32-2.44-.42.21-.81.22-1.52.24-.46,0-1.01.02-1.61-.2-.84-.31-1.28-.9-1.49-1.2-.12-.17-.53-.77-.69-2.31-.11-1.07.05-1.12,0-2.31-.04-.85-.18-1.6-.46-3.11-.15-.81-.29-1.43-.46-2.21-.39-1.78-.46-1.89-.57-2.51-.23-1.29-.18-2.26-.11-3.61.08-1.47-.05-2.94,0-4.41,0-.23.03-.78-.34-1-.36-.22-.91-.02-1.26.1-1.04.35-2.16.49-3.21.8-1.3.38-2.49.73-4.02.8-.24.01-.22,0-2.98-.1-2.18-.08-2.16-.08-2.64-.1-.75-.04-1.69-.1-3.9-.3-3.49-.32-3.48-.39-5.97-.6-1.47-.12-1.73-.12-3.9-.3-1.4-.12-2.55-.23-3.33-.3-.62-.69-.69-.8-.69-.8-.28-.45-.49-1.23-.11-1.6.3-.3.72-.09,1.84-.2,1.28-.13,2.32-.57,2.3-.7,0-.04-.11-.01-.61-.13-.11-.02-.33-.08-.6-.15-.43-.12-1.97-.66-2.12-.72-.93-.61-1.03-.8-1.03-.8-.14-.7.05-1.02.11-1.1.1-.15.26-.24,1.12-.43.38-.08.69-.13.9-.17Z"/>
        </g>
      </g>
    </g>
  </g>
</svg>